<?xml version="1.0" encoding="iso-8859-1"?>
<!-- Uploaded to: SVG Repo, www.svgrepo.com, Generator: SVG Repo Mixer Tools -->
<!DOCTYPE svg PUBLIC "-//W3C//DTD SVG 1.1//EN" "http://www.w3.org/Graphics/SVG/1.1/DTD/svg11.dtd">
<svg fill="#000000" version="1.1" id="Capa_1" xmlns="http://www.w3.org/2000/svg" xmlns:xlink="http://www.w3.org/1999/xlink" 
	 width="800px" height="800px" viewBox="0 0 442.624 442.624"
	 xml:space="preserve">
<g>
	<g>
		<path d="M434.827,104.904c-2.505-3.698-6.794-5.776-11.248-5.455l-39.364,2.842c-12.147-22.352-28.65-42.557-48.1-58.813
			c-26.194-21.897-57.677-36.854-91.042-43.255c-3.252-0.623-6.627,0.069-9.369,1.931c-2.744,1.86-4.637,4.735-5.262,7.991
			L219.14,69.071c-1.301,6.779,3.141,13.33,9.922,14.631c19.836,3.805,38.232,12.789,53.543,25.925l-14.195,1.024
			c-4.453,0.322-8.397,2.996-10.346,7.014c-1.951,4.019-1.605,8.771,0.898,12.468l87.285,128.759
			c2.337,3.445,6.221,5.485,10.346,5.485c0.3,0,0.6-0.011,0.901-0.031c4.454-0.322,8.397-2.995,10.348-7.014l67.885-139.961
			C437.676,113.354,437.333,108.6,434.827,104.904z M354.794,226.945l-62.988-92.918l18.783-1.355
			c4.58-0.331,8.61-3.147,10.497-7.335c1.886-4.188,1.322-9.072-1.466-12.722c-18.774-24.575-44.607-42.22-73.68-50.559
			l6.614-34.482c24.661,6.601,47.8,18.596,67.525,35.086c18.946,15.837,34.708,35.957,45.581,58.185
			c2.241,4.582,7.041,7.337,12.129,6.976l25.991-1.877L354.794,226.945z"/>
		<path d="M356.63,314.01l-44.864-39.841c-2.479-2.2-5.729-3.324-9.04-3.132c-3.311,0.197-6.405,1.7-8.606,4.179
			c-12.512,14.092-28.21,24.878-45.589,31.54l5.924-12.981c1.854-4.063,1.398-8.807-1.192-12.443
			c-2.593-3.637-6.935-5.618-11.373-5.188l-154.846,14.85c-4.445,0.427-8.324,3.192-10.178,7.255
			c-1.854,4.063-1.4,8.807,1.191,12.442l90.267,126.688c2.358,3.312,6.162,5.246,10.179,5.246c0.396,0,0.795-0.02,1.194-0.058
			c4.445-0.426,8.326-3.19,10.18-7.255l16.359-35.855c0.278,0.002,0.557,0.003,0.833,0.003c57.452,0,112.348-24.714,150.61-67.803
			c2.2-2.479,3.328-5.729,3.132-9.04C360.612,319.307,359.109,316.21,356.63,314.01z M207.067,374.458
			c-2.438,0-5.042-0.067-8.196-0.213c-5.093-0.238-9.825,2.655-11.944,7.3l-10.809,23.689l-65.139-91.422l111.741-10.718
			l-7.855,17.219c-1.904,4.174-1.369,9.057,1.394,12.719c2.765,3.663,7.317,5.519,11.851,4.829
			c28.518-4.319,55.079-17.345,75.989-37.066l26.256,23.314C297.475,356.249,253.21,374.458,207.067,374.458z"/>
		<path d="M97.513,237.44c-4.559-12.62-6.869-25.877-6.869-39.406c0-6.793,0.574-13.494,1.716-20.068l8.299,11.927
			c2.551,3.665,6.868,5.681,11.313,5.316c4.45-0.377,8.361-3.099,10.261-7.141l66.147-140.79c1.9-4.042,1.498-8.789-1.052-12.455
			c-2.552-3.665-6.861-5.689-11.313-5.316L21.011,42.595c-4.449,0.376-8.36,3.098-10.26,7.14s-1.499,8.79,1.052,12.456L34.3,94.524
			c-18.774,31.157-28.657,66.762-28.657,103.51c0,23.402,4.012,46.376,11.924,68.281c1.839,5.091,6.64,8.257,11.758,8.257
			c1.409,0,2.844-0.24,4.245-0.746l56.432-20.383C96.496,251.098,99.857,243.934,97.513,237.44z M86.313,136.925
			c-4.552,0.499-8.465,3.446-10.202,7.682c-6.946,16.938-10.468,34.913-10.468,53.427c0,12.221,1.555,24.268,4.633,35.953
			l-33.025,11.928c-4.39-15.53-6.608-31.585-6.608-47.881c0-34.701,10.053-68.224,29.074-96.941
			c2.828-4.271,2.765-9.836-0.161-14.042L44.69,65.686l111.858-9.445l-47.735,101.601l-10.875-15.63
			C95.323,138.454,90.866,136.42,86.313,136.925z"/>
	</g>
</g>
</svg>